<mxfile host="app.diagrams.net" agent="Mozilla/5.0 (Windows NT 10.0; Win64; x64) AppleWebKit/537.36 (KHTML, like Gecko) Chrome/131.0.0.0 Safari/537.36" version="25.0.3">
  <diagram name="Page-1" id="VKd6PJJ4E_oIzJmQVDMC">
    <mxGraphModel dx="1136" dy="579" grid="1" gridSize="10" guides="1" tooltips="1" connect="1" arrows="1" fold="1" page="1" pageScale="1" pageWidth="850" pageHeight="1100" math="0" shadow="0">
      <root>
        <mxCell id="0" />
        <mxCell id="1" parent="0" />
        <mxCell id="OZ5GIUlxGQ3k-sdNl4mR-7" style="edgeStyle=orthogonalEdgeStyle;rounded=0;orthogonalLoop=1;jettySize=auto;html=1;entryX=0.5;entryY=1;entryDx=0;entryDy=0;" edge="1" parent="1" source="OZ5GIUlxGQ3k-sdNl4mR-5" target="OZ5GIUlxGQ3k-sdNl4mR-6">
          <mxGeometry relative="1" as="geometry" />
        </mxCell>
        <mxCell id="OZ5GIUlxGQ3k-sdNl4mR-9" style="edgeStyle=orthogonalEdgeStyle;rounded=0;orthogonalLoop=1;jettySize=auto;html=1;" edge="1" parent="1" source="OZ5GIUlxGQ3k-sdNl4mR-5" target="OZ5GIUlxGQ3k-sdNl4mR-8">
          <mxGeometry relative="1" as="geometry" />
        </mxCell>
        <mxCell id="OZ5GIUlxGQ3k-sdNl4mR-5" value="&lt;p style=&quot;margin:0px;margin-top:4px;text-align:center;&quot;&gt;&lt;b&gt;Wave Collider&lt;/b&gt;&lt;/p&gt;&lt;hr size=&quot;1&quot; style=&quot;border-style:solid;&quot;&gt;&lt;p style=&quot;margin:0px;margin-left:4px;&quot;&gt;+ density: Float&lt;br&gt;+ Use Surface Normal : Bool&lt;br&gt;+ Set Position : Bool&lt;br&gt;+ controller : Wave Controller&lt;/p&gt;&lt;hr size=&quot;1&quot; style=&quot;border-style:solid;&quot;&gt;&lt;p style=&quot;margin:0px;margin-left:4px;&quot;&gt;+ getHeight: float&lt;br&gt;+ getNormal: Vec3&lt;/p&gt;" style="verticalAlign=top;align=left;overflow=fill;html=1;whiteSpace=wrap;" vertex="1" parent="1">
          <mxGeometry x="400" y="320" width="160" height="140" as="geometry" />
        </mxCell>
        <mxCell id="OZ5GIUlxGQ3k-sdNl4mR-6" value="&lt;p style=&quot;margin:0px;margin-top:4px;text-align:center;&quot;&gt;&lt;b&gt;Physics Collider&lt;/b&gt;&lt;/p&gt;&lt;hr size=&quot;1&quot; style=&quot;border-style:solid;&quot;&gt;&lt;p style=&quot;margin:0px;margin-left:4px;&quot;&gt;&lt;br&gt;&lt;/p&gt;" style="verticalAlign=top;align=left;overflow=fill;html=1;whiteSpace=wrap;" vertex="1" parent="1">
          <mxGeometry x="420" y="280" width="120" height="20" as="geometry" />
        </mxCell>
        <mxCell id="OZ5GIUlxGQ3k-sdNl4mR-11" style="edgeStyle=orthogonalEdgeStyle;rounded=0;orthogonalLoop=1;jettySize=auto;html=1;startArrow=diamondThin;startFill=0;startSize=10;" edge="1" parent="1" source="OZ5GIUlxGQ3k-sdNl4mR-8" target="OZ5GIUlxGQ3k-sdNl4mR-10">
          <mxGeometry relative="1" as="geometry" />
        </mxCell>
        <mxCell id="OZ5GIUlxGQ3k-sdNl4mR-8" value="&lt;p style=&quot;margin:0px;margin-top:4px;text-align:center;&quot;&gt;&lt;b&gt;Wave Controller&lt;/b&gt;&lt;/p&gt;&lt;hr size=&quot;1&quot; style=&quot;border-style:solid;&quot;&gt;&lt;p style=&quot;margin:0px;margin-left:4px;&quot;&gt;+ waves : List&amp;lt;IWave&amp;gt;&lt;br&gt;+ wave parameters&lt;/p&gt;&lt;hr size=&quot;1&quot; style=&quot;border-style:solid;&quot;&gt;&lt;p style=&quot;margin:0px;margin-left:4px;&quot;&gt;+ updateMaterial: void&lt;br&gt;+ getHeight: float&lt;br&gt;+ getNormal: Vec3&lt;br&gt;&lt;br&gt;&lt;/p&gt;" style="verticalAlign=top;align=left;overflow=fill;html=1;whiteSpace=wrap;" vertex="1" parent="1">
          <mxGeometry x="200" y="330" width="160" height="120" as="geometry" />
        </mxCell>
        <mxCell id="OZ5GIUlxGQ3k-sdNl4mR-10" value="&lt;p style=&quot;margin:0px;margin-top:4px;text-align:center;&quot;&gt;&lt;b&gt;&amp;lt;&amp;lt;Interface&amp;gt;&amp;gt;&lt;br&gt;Wave&lt;/b&gt;&lt;/p&gt;&lt;hr size=&quot;1&quot; style=&quot;border-style:solid;&quot;&gt;&lt;p style=&quot;margin:0px;margin-left:4px;&quot;&gt;+ updateShader: void&lt;br&gt;+ getHeight: float&lt;br&gt;+ getNormal: Vec3&lt;br&gt;&lt;br&gt;&lt;/p&gt;" style="verticalAlign=top;align=left;overflow=fill;html=1;whiteSpace=wrap;" vertex="1" parent="1">
          <mxGeometry x="200" y="480" width="160" height="90" as="geometry" />
        </mxCell>
        <mxCell id="OZ5GIUlxGQ3k-sdNl4mR-15" style="edgeStyle=orthogonalEdgeStyle;rounded=0;orthogonalLoop=1;jettySize=auto;html=1;exitX=0.5;exitY=0;exitDx=0;exitDy=0;" edge="1" parent="1" source="OZ5GIUlxGQ3k-sdNl4mR-12" target="OZ5GIUlxGQ3k-sdNl4mR-10">
          <mxGeometry relative="1" as="geometry" />
        </mxCell>
        <mxCell id="OZ5GIUlxGQ3k-sdNl4mR-12" value="&lt;p style=&quot;margin:0px;margin-top:4px;text-align:center;&quot;&gt;&lt;b&gt;Flat Wave&lt;/b&gt;&lt;/p&gt;&lt;hr size=&quot;1&quot; style=&quot;border-style:solid;&quot;&gt;&lt;p style=&quot;margin:0px;margin-left:4px;&quot;&gt;+ getHeight: float -&amp;gt; 0&lt;br&gt;+ getNormal: Vec3 -&amp;gt; Up&lt;br&gt;&lt;br&gt;&lt;/p&gt;" style="verticalAlign=top;align=left;overflow=fill;html=1;whiteSpace=wrap;" vertex="1" parent="1">
          <mxGeometry x="10" y="610" width="160" height="60" as="geometry" />
        </mxCell>
        <mxCell id="OZ5GIUlxGQ3k-sdNl4mR-23" style="edgeStyle=orthogonalEdgeStyle;rounded=0;orthogonalLoop=1;jettySize=auto;html=1;" edge="1" parent="1" source="OZ5GIUlxGQ3k-sdNl4mR-18" target="OZ5GIUlxGQ3k-sdNl4mR-10">
          <mxGeometry relative="1" as="geometry" />
        </mxCell>
        <mxCell id="OZ5GIUlxGQ3k-sdNl4mR-18" value="&lt;p style=&quot;margin:0px;margin-top:4px;text-align:center;&quot;&gt;&lt;b&gt;Sine Wave&lt;/b&gt;&lt;/p&gt;&lt;hr size=&quot;1&quot; style=&quot;border-style:solid;&quot;&gt;&lt;p style=&quot;margin:0px;margin-left:4px;&quot;&gt;+ amplitude: Float&lt;br&gt;+ wavelength: Float&lt;br&gt;+ speed: Float&lt;br&gt;- waveNumber (k): Float&amp;nbsp;&lt;/p&gt;" style="verticalAlign=top;align=left;overflow=fill;html=1;whiteSpace=wrap;" vertex="1" parent="1">
          <mxGeometry x="200" y="610" width="160" height="90" as="geometry" />
        </mxCell>
        <mxCell id="OZ5GIUlxGQ3k-sdNl4mR-20" style="edgeStyle=orthogonalEdgeStyle;rounded=0;orthogonalLoop=1;jettySize=auto;html=1;exitX=0.5;exitY=0;exitDx=0;exitDy=0;" edge="1" parent="1" source="OZ5GIUlxGQ3k-sdNl4mR-19" target="OZ5GIUlxGQ3k-sdNl4mR-10">
          <mxGeometry relative="1" as="geometry">
            <Array as="points">
              <mxPoint x="470" y="590" />
              <mxPoint x="280" y="590" />
            </Array>
          </mxGeometry>
        </mxCell>
        <mxCell id="OZ5GIUlxGQ3k-sdNl4mR-25" style="edgeStyle=orthogonalEdgeStyle;rounded=0;orthogonalLoop=1;jettySize=auto;html=1;startArrow=diamondThin;startFill=0;startSize=10;" edge="1" parent="1" source="OZ5GIUlxGQ3k-sdNl4mR-19" target="OZ5GIUlxGQ3k-sdNl4mR-24">
          <mxGeometry relative="1" as="geometry" />
        </mxCell>
        <mxCell id="OZ5GIUlxGQ3k-sdNl4mR-19" value="&lt;p style=&quot;margin:0px;margin-top:4px;text-align:center;&quot;&gt;&lt;b&gt;Gerstner Waves&lt;/b&gt;&lt;/p&gt;&lt;hr size=&quot;1&quot; style=&quot;border-style:solid;&quot;&gt;&lt;p style=&quot;margin:0px;margin-left:4px;&quot;&gt;+ waves:&lt;br&gt;&lt;span style=&quot;white-space: pre;&quot;&gt;&#x9;&lt;/span&gt;List&amp;lt;Gerstner Wave&amp;gt;&lt;/p&gt;" style="verticalAlign=top;align=left;overflow=fill;html=1;whiteSpace=wrap;" vertex="1" parent="1">
          <mxGeometry x="390" y="610" width="160" height="60" as="geometry" />
        </mxCell>
        <mxCell id="OZ5GIUlxGQ3k-sdNl4mR-24" value="&lt;p style=&quot;margin:0px;margin-top:4px;text-align:center;&quot;&gt;&lt;b&gt;Gerstner Wave&lt;/b&gt;&lt;/p&gt;&lt;hr size=&quot;1&quot; style=&quot;border-style:solid;&quot;&gt;&lt;p style=&quot;margin:0px;margin-left:4px;&quot;&gt;+ direction: Vec2&lt;br&gt;+ wavelength: Float&lt;br&gt;+ steepness: Float&lt;br&gt;+ a bunch of properties&lt;/p&gt;" style="verticalAlign=top;align=left;overflow=fill;html=1;whiteSpace=wrap;" vertex="1" parent="1">
          <mxGeometry x="610" y="595" width="160" height="90" as="geometry" />
        </mxCell>
      </root>
    </mxGraphModel>
  </diagram>
</mxfile>
